<svg width="186" height="99" viewBox="0 0 186 99" fill="none" xmlns="http://www.w3.org/2000/svg">
<line x1="60" y1="26.5" x2="7" y2="26.5" stroke="black" stroke-width="3"/>
<line x1="177" y1="49.5" x2="144" y2="49.5" stroke="black" stroke-width="3"/>
<line x1="59" y1="77.5" x2="6" y2="77.5" stroke="black" stroke-width="3"/>
<circle cx="5.5" cy="77.5" r="4.5" fill="black" stroke="white" stroke-width="2"/>
<circle cx="5.5" cy="26.5" r="4.5" fill="black" stroke="white" stroke-width="2"/>
<circle cx="180.5" cy="48.5" r="4.5" fill="black" stroke="white" stroke-width="2"/>
<path d="M103.492 11.6935C118.018 18.9245 130.523 30.8341 145.086 49.4826C131.635 66.0671 119.734 77.0401 105.239 84.3051C90.9578 91.4631 74.0293 95.0864 50.3773 96.7664C58.5056 78.2083 62.7293 63.4439 62.7772 48.8156C62.8251 34.1627 58.6834 19.8004 50.3613 2.04707C72.8502 1.92536 89.2234 4.5906 103.492 11.6935Z" fill="white" stroke="black" stroke-width="3"/>
</svg>
